<svg fill="#000000" height="16px" width="16px" version="1.1" id="Layer_1" xmlns="http://www.w3.org/2000/svg" xmlns:xlink="http://www.w3.org/1999/xlink" viewBox="0 0 270 270" xml:space="preserve">

<g id="SVGRepo_bgCarrier" stroke-width="0"/>

<g id="SVGRepo_tracerCarrier" stroke-linecap="round" stroke-linejoin="round"/>

<g id="SVGRepo_iconCarrier"> <g id="XMLID_16_"> <path id="XMLID_17_" d="M255.001,60h-45V15c0-8.284-6.716-15-15-15H15C6.716,0,0,6.716,0,15v240c0,8.284,6.716,15,15,15h180.001 c8.284,0,15-6.716,15-15v-14.999l45-0.001c8.284,0,15-6.716,15-15V75C270,66.716,263.285,60,255.001,60z M180.001,30v30H30V30 H180.001z M180.001,240H30V90h150.001V240z M210.001,90h30v120l-30,0.001V90z"/> <path id="XMLID_22_" d="M135,120c-8.284,0-15,6.716-15,15v60c0,8.284,6.716,15,15,15c8.285,0,15.001-6.716,15.001-15v-60 C150.001,126.716,143.285,120,135,120z"/> <path id="XMLID_23_" d="M75,120c-8.284,0-15,6.716-15,15v60c0,8.284,6.716,15,15,15s15-6.716,15-15v-60 C90,126.716,83.284,120,75,120z"/> </g> </g>

</svg>